<svg fill="currentColor" fill-rule="evenodd" viewBox="0 0 24 24" width="256" height="256" xmlns="http://www.w3.org/2000/svg">
    <title>Z.ai - 简洁原版Z + 垂直锚点</title>
    
    <!-- 对话气泡背景 -->
    <path d="M3 4c0-1.1.9-2 2-2h14c1.1 0 2 .9 2 2v12c0 1.1-.9 2-2 2h-4l-3 4-3-4H5c-1.1 0-2-.9-2-2V4z" 
          fill="none" stroke="currentColor" stroke-width="1.5"/>
    
    <!-- 左侧垂直锚点导航 -->
    <!-- 上方锚点 -->
    <circle cx="5.5" cy="5" r="0.9" fill="currentColor"/>
    
    <!-- 中间锚点（高亮/当前位置） -->
    <circle cx="5.5" cy="10" r="1.2" fill="currentColor"/>
    
    <!-- 下方锚点 -->
    <circle cx="5.5" cy="15" r="0.9" fill="currentColor"/>
    
    <!-- 连接线 -->
    <!-- 上中连接线 -->
    <line x1="5.5" y1="6.1" x2="5.5" y2="8.6" stroke="currentColor" stroke-width="0.5" opacity="0.4"/>
    
    <!-- 中下连接线 -->
    <line x1="5.5" y1="11.4" x2="5.5" y2="13.9" stroke="currentColor" stroke-width="0.5" opacity="0.4"/>
    
    <!-- 原版Z.ai图标（缩放版本） -->
    <g transform="translate(8, 4) scale(0.5)">
        <!-- 顶部斜线 -->
        <path d="M12.105 2L9.927 4.953H.653L2.83 2h9.276z" fill="currentColor"/>
        
        <!-- 底部斜线 -->
        <path d="M23.254 19.048L21.078 22h-9.242l2.174-2.952h9.244z" fill="currentColor"/>
        
        <!-- 主体对角线 -->
        <path d="M24 2L9.264 22H0L14.736 2H24z" fill="currentColor"/>
    </g>
</svg>
